# Blender v3.0.1 OBJ File: 'scene.blend'
# www.blender.org
mtllib tree.mtl
o scene
v 140.000000 -0.000004 100.000000
v 140.000000 16.786795 40.000000
v 140.000000 16.786793 100.000000
v 140.000000 -0.000002 40.000000
v 116.000000 -0.000002 38.000000
v 124.000000 -0.000002 40.000000
v 116.000000 -0.000002 40.000000
v 124.000000 -0.000002 38.000000
v 116.000000 -0.000004 100.000000
v 100.000000 -0.000004 100.000000
v 124.000000 -0.000004 100.000000
v 100.000000 -0.000002 40.000000
v 124.000000 -0.000004 102.000000
v 116.000000 -0.000004 102.000000
v 100.000000 16.786793 100.000000
v 100.000000 16.786795 40.000000
v 116.000000 13.999998 40.000000
v 100.807602 15.979182 40.000000
v 139.192383 15.979182 40.000000
v 124.000000 13.999998 40.000000
v 120.000000 35.171570 40.000000
v 120.000000 35.171566 100.000000
v 124.000000 13.999995 100.000000
v 139.192383 15.979179 100.000000
v 116.000000 13.999995 100.000000
v 100.807602 15.979179 100.000000
v 97.979187 18.807610 35.000000
v 120.000000 35.171570 35.000000
v 100.807602 15.979182 35.000000
v 118.000000 38.828426 35.000000
v 142.020813 18.807610 35.000000
v 139.192383 15.979182 35.000000
v 122.000000 38.828426 35.000000
v 122.000000 41.000000 35.000000
v 118.000000 41.000000 35.000000
v 142.020813 18.807608 105.000000
v 122.000000 38.828423 105.000000
v 139.192383 15.979179 105.000000
v 120.000000 35.171566 105.000000
v 118.000000 38.828423 105.000000
v 122.000000 40.999996 105.000000
v 118.000000 40.999996 105.000000
v 97.979187 18.807608 105.000000
v 100.807602 15.979179 105.000000
v 124.000000 13.999998 38.000000
v 116.000000 13.999998 38.000000
v 124.000000 13.999995 102.000000
v 116.000000 13.999995 102.000000
v -842.917969 -2.099953 -1071.267822
v -880.000000 2.099997 70.000000
v -760.000000 -2.100003 70.000000
v -977.082031 -2.100034 775.342224
v -842.917969 -2.100053 1211.267822
v -977.082031 -2.099972 -635.342285
vn 0.0000 -1.0000 -0.0000
vn 0.0000 0.0000 -1.0000
vn -0.0000 0.0000 1.0000
vn 0.7071 -0.7071 -0.0000
vn -0.7071 -0.7071 0.0000
vn 1.0000 0.0000 0.0000
vn 0.0000 1.0000 0.0000
vn -1.0000 0.0000 0.0000
vn 0.7071 0.7071 0.0000
vn -0.7071 0.7071 0.0000
vn 0.0350 0.9994 -0.0025
vn -0.0134 0.9999 0.0041
vn 0.0350 0.9994 0.0025
vn -0.0432 0.9991 0.0000
vn -0.0134 0.9999 -0.0041
usemtl Red1
s off
f 5//1 6//1 7//1
f 6//1 5//1 8//1
f 7//1 9//1 10//1
f 9//1 7//1 11//1
f 7//1 10//1 12//1
f 6//1 11//1 7//1
f 11//1 6//1 1//1
f 1//1 6//1 4//1
f 9//1 13//1 14//1
f 13//1 9//1 11//1
f 4//2 19//2 2//2
f 10//3 26//3 15//3
f 27//2 28//2 29//2
f 28//2 27//2 30//2
f 28//2 31//2 32//2
f 31//2 28//2 33//2
f 30//2 33//2 28//2
f 33//2 30//2 34//2
f 34//2 30//2 35//2
f 36//4 3//4 31//4
f 38//4 3//4 36//4
f 3//4 38//4 24//4
f 2//4 31//4 3//4
f 32//4 2//4 19//4
f 2//4 32//4 31//4
f 19//5 28//5 32//5
f 22//5 38//5 39//5
f 38//5 22//5 24//5
f 40//3 37//3 41//3
f 40//3 41//3 42//3
f 37//3 40//3 39//3
f 43//3 39//3 40//3
f 39//3 43//3 44//3
f 39//3 36//3 37//3
f 36//3 39//3 38//3
f 37//6 34//6 41//6
f 34//6 37//6 33//6
f 34//7 42//7 41//7
f 42//7 34//7 35//7
f 30//8 42//8 35//8
f 42//8 30//8 40//8
f 27//5 16//5 43//5
f 29//5 16//5 27//5
f 16//5 29//5 18//5
f 15//5 43//5 16//5
f 44//5 15//5 26//5
f 15//5 44//5 43//5
f 29//4 21//4 18//4
f 21//4 29//4 28//4
f 26//4 39//4 44//4
f 39//4 26//4 22//4
f 6//6 45//6 20//6
f 45//6 6//6 8//6
f 45//7 17//7 20//7
f 17//7 45//7 46//7
f 5//8 17//8 46//8
f 17//8 5//8 7//8
f 5//2 45//2 8//2
f 45//2 5//2 46//2
f 13//6 23//6 47//6
f 23//6 13//6 11//6
f 23//7 48//7 47//7
f 48//7 23//7 25//7
f 9//8 48//8 25//8
f 48//8 9//8 14//8
f 48//3 13//3 47//3
f 13//3 48//3 14//3
f 52//1 51//1 53//1
f 54//1 51//1 52//1
f 51//1 54//1 49//1
usemtl DarkRed
f 36//9 33//9 37//9
f 33//9 36//9 31//9
f 27//10 40//10 30//10
f 40//10 27//10 43//10
usemtl Yellow1
f 12//2 17//2 7//2
f 17//2 12//2 18//2
f 18//2 12//2 16//2
f 20//2 4//2 6//2
f 4//2 20//2 19//2
f 20//2 21//2 19//2
f 17//2 21//2 20//2
f 21//2 17//2 18//2
f 22//3 23//3 24//3
f 22//3 25//3 23//3
f 26//3 25//3 22//3
f 10//3 25//3 26//3
f 25//3 10//3 9//3
f 24//3 1//3 3//3
f 23//3 1//3 24//3
f 1//3 23//3 11//3
f 28//5 19//5 21//5
f 49//11 50//11 51//11
f 50//12 52//12 53//12
f 51//13 50//13 53//13
f 54//14 52//14 50//14
f 49//15 54//15 50//15
usemtl DarkYellow
f 1//6 2//6 3//6
f 2//6 1//6 4//6
f 12//8 15//8 16//8
f 15//8 12//8 10//8
o tree.006
v 0.000000 51.000000 -1.119998
v 1.820000 49.669998 0.000002
v 7.500000 51.000000 0.000002
v 1.820000 52.320000 0.000002
v 0.000000 51.000000 1.120002
v 2.310000 58.129997 0.000003
v -0.690000 53.129997 0.000002
v -6.060000 55.399998 0.000002
v -2.240000 51.000000 0.000002
v -6.060000 46.590000 0.000002
v -0.690000 48.860001 0.000002
v 2.310000 43.860001 0.000002
vn 0.1249 -0.5335 -0.8365
vn 0.1247 0.5364 0.8347
vn 0.5476 -0.0462 -0.8355
vn -0.4742 0.2845 0.8332
vn 0.2148 0.5081 -0.8341
vn -0.4169 -0.3619 0.8338
vn -0.4170 0.3612 -0.8340
vn -0.4170 0.3612 0.8340
vn -0.4732 -0.2839 -0.8340
vn -0.4732 -0.2839 0.8340
vn 0.1247 0.5364 -0.8347
vn 0.1249 -0.5335 0.8365
vn -0.4742 0.2845 -0.8332
vn 0.5476 -0.0462 0.8355
vn -0.4169 -0.3619 -0.8338
vn 0.2148 0.5081 0.8341
vn 0.2140 -0.5062 -0.8354
vn 0.2140 -0.5062 0.8354
vn 0.5478 0.0462 -0.8353
vn 0.5478 0.0462 0.8353
usemtl Yellow1.001
s off
f 55//16 57//16 56//16
f 59//17 57//17 58//17
f 55//18 60//18 58//18
f 59//19 60//19 61//19
f 55//20 62//20 61//20
f 59//21 62//21 63//21
f 55//22 64//22 63//22
f 59//23 63//23 64//23
f 55//24 66//24 65//24
f 59//25 65//25 66//25
usemtl Orange
f 55//26 58//26 57//26
f 59//27 56//27 57//27
f 55//28 61//28 60//28
f 59//29 58//29 60//29
f 55//30 63//30 62//30
f 59//31 61//31 62//31
f 55//32 65//32 64//32
f 59//33 64//33 65//33
f 55//34 56//34 66//34
f 59//35 66//35 56//35
o tree.002
v 0.000000 45.000000 0.000002
v 3.360000 37.399998 5.900002
v -4.030000 36.200001 6.900001
v -6.790000 37.399998 -0.029998
v -3.960000 36.200001 -6.949998
v 3.430000 37.399998 -5.859998
v 7.990000 36.200001 0.040002
v 9.050000 27.599998 -4.689999
v 11.860000 25.799999 1.790001
v 7.260000 27.599998 7.160001
v 1.960000 25.799999 11.830001
v -4.560000 27.599998 9.120001
v -10.650000 25.799999 5.520001
v -10.080000 27.599998 -1.519999
v -8.540000 25.799999 -8.419999
v -1.660000 27.599998 -10.059999
v 5.370000 25.799999 -10.729999
v 17.820000 10.050000 -0.870000
v 19.340000 6.899999 8.170000
v 11.790000 10.049999 13.389999
v 5.660000 6.899999 20.219999
v -3.110000 10.049999 17.570000
v -12.270000 6.899999 17.029999
v -15.679999 10.050000 8.520000
v -20.969999 6.900000 1.020000
v -16.440001 10.050000 -6.949999
v -13.870000 6.900000 -15.759999
v -4.810000 10.050001 -17.180000
v 3.660000 6.900001 -20.670000
v 10.429999 10.050001 -14.480000
v 18.449999 6.900000 -10.020000
v 5.500000 0.000000 0.000000
v 2.750000 -0.000000 4.760000
v -2.740000 -0.000000 4.760000
v -5.490000 0.000000 0.000000
v -2.750000 0.000000 -4.760000
v 2.740000 0.000000 -4.760000
v -3.990414 10.050000 -0.426699
v -2.121875 10.049998 -3.672772
v 4.243750 10.049998 0.000000
v 2.114159 10.049998 -3.672772
v 2.114159 10.049998 -3.672772
v -4.236034 10.050000 0.000000
v -3.990414 10.050000 -0.426699
v -3.990414 10.050000 -0.426699
v -2.121875 10.049998 -3.672772
v -3.944886 10.050000 0.503951
v -4.236034 10.050000 0.000000
v 1.018947 37.399998 1.004914
v -2.178701 27.599998 0.105975
v -1.977745 27.599998 -0.836089
v 0.380260 27.599998 -2.147531
v -1.441039 27.599998 -1.637401
v 4.243750 10.049998 0.000000
v 2.121875 10.049998 3.672773
v 2.121875 10.049998 3.672773
v -4.236034 10.050000 0.000000
v -2.114159 10.049998 3.672773
v -2.114159 10.049998 3.672773
v -3.944886 10.050000 0.503951
v -3.944886 10.050000 0.503951
v -1.414737 37.399998 -0.213332
v -1.414737 37.399998 -0.213332
v -1.290909 37.399998 0.669092
v -1.290909 37.399998 0.669092
v 0.237576 37.399998 1.433941
v 0.237576 37.399998 1.433941
v 1.018947 37.399998 1.004914
v -0.640000 37.399998 1.280002
v -0.640000 37.399998 1.280002
v 1.437576 37.399998 0.216971
v 1.437576 37.399998 0.216971
v 1.270175 37.399998 -0.658244
v 1.270175 37.399998 -0.658244
v 0.650909 37.399998 -1.300604
v 0.650909 37.399998 -1.300604
v -0.232982 37.399998 -1.411928
v -0.232982 37.399998 -1.411928
v -1.035151 37.399998 -1.020604
v -1.035151 37.399998 -1.020604
v 2.009350 27.599998 0.848832
v 2.009350 27.599998 0.848832
v 2.143759 27.599998 -0.104660
v 2.143759 27.599998 -0.104660
v -2.178701 27.599998 0.105975
v -1.886316 27.599998 1.024964
v -1.886316 27.599998 1.024964
v 0.588052 27.599998 2.100780
v 0.588052 27.599998 2.100780
v 1.418346 27.599998 1.610828
v 1.418346 27.599998 1.610828
v -1.274805 27.599998 1.769352
v -1.274805 27.599998 1.769352
v 1.916883 27.599998 -1.041038
v 1.254737 27.599998 -1.741954
v -0.578647 27.599998 -2.066766
v -0.374135 27.599998 2.113686
v -0.374135 27.599998 2.113686
v -1.977745 27.599998 -0.836089
v -1.441039 27.599998 -1.637401
vn 0.0000 -1.0000 0.0000
vn -0.6901 0.6151 0.3814
vn 0.0164 0.6152 -0.7882
vn 0.6752 0.6149 0.4075
vn -0.7159 0.6600 0.2278
vn 0.7458 0.6507 -0.1426
vn -0.2683 0.6599 0.7018
vn -0.6872 0.6507 -0.3231
vn 0.0949 0.6509 -0.7532
vn 0.3654 0.6507 0.6656
vn 0.7440 0.6600 0.1049
vn 0.3818 0.6599 0.6471
vn -0.0631 0.6599 -0.7487
vn -0.5196 0.6508 0.5536
vn 0.5461 0.6600 -0.5159
vn -0.6242 0.6600 -0.4181
vn -0.8616 0.1075 -0.4960
vn 0.8609 0.1076 0.4973
vn 0.8601 0.1075 -0.4987
vn 0.0000 0.1076 -0.9942
vn 0.0000 0.1076 0.9942
vn -0.8609 0.1074 0.4974
vn 0.0068 0.6151 0.7884
vn -0.6867 0.6150 -0.3875
vn 0.6794 0.6151 -0.4000
vn 0.1249 -0.9677 0.2189
vn 0.1276 -0.9675 -0.2183
vn -0.2527 -0.9676 -0.0015
vn -0.7458 -0.6507 0.1426
vn -0.1940 -0.9015 0.3868
vn 0.3083 -0.9014 0.3040
vn 0.3843 -0.9014 -0.1994
vn -0.7458 -0.6507 0.1427
vn -0.4282 -0.9014 -0.0647
vn -0.0709 -0.9011 -0.4278
vn -0.0941 -0.8419 0.5314
vn -0.5461 -0.6600 0.5159
vn 0.3562 -0.8421 0.4050
vn -0.7440 -0.6600 -0.1048
vn 0.5389 -0.8420 -0.0265
vn -0.7440 -0.6600 -0.1049
vn -0.7440 -0.6599 -0.1049
vn -0.4966 -0.8422 -0.2100
vn 0.3153 -0.8419 -0.4380
vn -0.1456 -0.8422 -0.5191
vn -0.5805 0.6600 0.4769
vn 0.6705 0.6508 0.3562
vn -0.7519 0.6508 0.1055
vn 0.0101 0.6600 0.7512
vn -0.7347 0.6600 -0.1567
vn -0.1312 0.6508 0.7479
vn 0.5466 0.6508 -0.5270
vn 0.7302 0.6599 -0.1769
vn -0.3329 0.6507 -0.6825
vn -0.3349 0.6599 -0.6726
vn 0.5937 0.6599 0.4605
vn 0.3161 0.6600 -0.6816
vn -0.7439 -0.6600 -0.1049
vn -0.5461 -0.6600 0.5160
usemtl Yellow1.001
s off
f 127//36 114//36 110//36
usemtl Green1
f 67//37 70//37 69//37
f 67//38 72//38 71//38
f 67//39 68//39 73//39
f 116//40 90//40 153//40
f 74//41 139//41 138//41
f 159//42 88//42 164//42
f 145//43 80//43 128//43
f 141//44 82//44 143//44
f 132//45 76//45 115//45
f 84//46 149//46 148//46
f 155//47 86//47 156//47
f 118//48 94//48 162//48
f 135//49 130//49 79//49 78//49
f 96//50 161//50 160//50
f 166//51 92//51 165//51
f 116//40 91//40 90//40
f 159//42 89//42 88//42
f 145//43 81//43 80//43
f 141//44 83//44 82//44
f 132//45 77//45 76//45
f 155//47 87//47 86//47
f 118//48 95//48 94//48
f 166//51 93//51 92//51
f 84//46 148//46 85//46
f 96//50 160//50 97//50
f 74//41 138//41 75//41
usemtl Red1.001
f 104//52 102//52 101//52
f 106//53 99//53 98//53
f 106//54 103//54 107//54
f 112//55 103//55 102//55
f 122//56 100//56 99//56
f 113//57 101//57 100//57
f 101//52 123//52 104//52
f 104//52 112//52 102//52
f 106//53 122//53 99//53
f 106//54 98//54 103//54
f 112//55 107//55 103//55
f 122//56 125//56 100//56
f 100//57 125//57 113//57
f 113//57 123//57 101//57
usemtl DarkGreen
f 67//58 69//58 68//58
f 67//59 71//59 70//59
f 67//60 73//60 72//60
f 70//61 71//61 72//61
f 136//36 133//36 68//36
f 69//62 70//62 68//62
f 68//63 72//63 73//63
f 74//64 82//65 83//65
f 81//66 82//66 80//66
f 80//67 78//67 79//67
f 154//36 157//36 78//36
f 78//36 74//68 76//36
f 76//69 74//64 75//64
f 77//70 78//70 76//70
f 80//36 82//36 74//68
f 94//71 95//71 96//72
f 93//73 94//73 92//73
f 88//36 124//36 121//36
f 96//72 84//74 94//36
f 94//36 90//36 92//36
f 91//75 92//75 90//75
f 84//76 86//36 94//36
f 94//36 109//36 90//36
f 85//77 86//78 84//77
f 89//79 90//79 88//79
f 88//80 86//80 87//80
f 84//74 96//72 97//72
f 108//36 94//36 120//36
f 90//36 126//36 88//36
f 159//81 90//81 89//81
f 138//82 76//82 75//82
f 142//36 144//36 72//36
f 130//83 80//83 79//83
f 155//84 88//84 87//84
f 116//85 92//85 91//85
f 132//86 78//86 77//86
f 141//87 74//64 83//87
f 119//36 117//36 80//36
f 160//88 84//88 97//88
f 145//89 82//89 81//89
f 166//90 94//90 93//90
f 148//91 86//91 85//91
f 118//92 96//72 95//92
f 70//36 129//36 131//36
f 70//36 131//36 136//36
f 134//36 137//36 68//36
f 133//36 134//36 68//36
f 68//36 70//36 136//36
f 78//36 80//36 152//36
f 80//36 151//36 152//36
f 147//36 150//36 74//64
f 157//36 147//36 74//68
f 78//36 152//36 158//36
f 78//36 158//36 163//36
f 157//36 74//68 78//36
f 78//36 163//36 154//36
f 120//36 86//36 121//36
f 86//36 88//36 121//36
f 88//36 126//36 124//36
f 94//36 111//36 109//36
f 105//36 111//36 94//36
f 94//36 86//36 120//36
f 108//36 105//36 94//36
f 90//36 109//36 126//36
f 159//81 153//81 90//81
f 138//64 115//82 76//82
f 72//36 68//36 137//36
f 72//36 137//36 140//36
f 146//36 129//36 70//36
f 144//36 146//36 72//36
f 146//36 70//36 72//36
f 72//36 140//36 142//36
f 130//83 128//83 80//83
f 155//84 164//84 88//84
f 116//85 165//85 92//85
f 132//86 135//86 78//86
f 141//87 139//64 74//64
f 74//64 150//36 119//36
f 117//36 151//36 80//36
f 80//36 74//64 119//36
f 160//72 149//93 84//93
f 145//89 143//89 82//89
f 166//90 162//90 94//90
f 148//77 156//91 86//91
f 118//92 161//94 96//72
o happiness
v 123.346344 54.175083 -509.897614
v 114.293732 153.168594 -499.019470
v 167.407944 154.965286 -471.168945
v 162.629242 110.118759 -480.705872
v 158.555573 154.665833 -475.810730
v 163.534515 100.219406 -481.793701
v 176.460556 55.971771 -482.047089
v 167.608185 55.672321 -486.688843
v 128.125046 99.021606 -500.360718
v 127.219772 108.920959 -499.272888
v 123.146103 153.468048 -494.377747
v 132.198715 54.474529 -505.255859
v 171.970413 156.348450 -479.959351
v 163.118042 156.049011 -484.601074
v 184.802017 59.230747 -477.204834
v 193.587051 56.957851 -473.002777
v 198.597855 153.097534 -455.274384
v 198.538315 152.692413 -455.369019
v 200.127243 101.457222 -462.606232
v 201.593948 111.436813 -460.274658
v 202.960968 154.593475 -452.774414
v 198.969482 155.626175 -454.683594
v 207.702957 153.002426 -450.563538
v 204.869461 133.723343 -455.067780
v 207.569931 153.401031 -450.569885
v 206.739517 155.889008 -450.609375
v 212.188232 111.795181 -454.719543
v 215.465500 101.976067 -454.563599
v 238.395294 61.043640 -449.103088
v 230.078873 58.192257 -453.868225
v 299.143677 154.276871 -402.902618
v 273.437225 160.736526 -415.228577
v 311.127960 136.987946 -399.402863
v 302.369873 118.997383 -406.779388
v 277.999756 110.843796 -420.711151
v 293.614258 121.722374 -410.895020
v 277.343872 118.015869 -419.923035
v 302.275604 136.688507 -404.044617
v 270.604248 117.787888 -423.457001
v 251.442627 109.945450 -434.636414
v 250.786774 117.117523 -433.848297
v 271.477020 117.349579 -423.072937
v 274.334839 117.914085 -421.500824
v 238.027756 159.538727 -433.795593
v 247.535980 152.666107 -429.941956
v 267.353455 153.336456 -419.550659
v 268.140930 153.830933 -419.064117
v 271.084045 153.462662 -417.594482
v 274.093079 153.564453 -416.016693
v 290.938904 150.978149 -407.680206
v 246.582474 65.989861 -444.075439
v 255.434830 66.289307 -439.433685
v 374.388824 156.822189 -363.447723
v 348.682373 163.281830 -375.773682
v 386.373108 139.533264 -359.947937
v 377.615021 121.542694 -367.324493
v 353.244873 113.389099 -381.256256
v 368.859375 124.267685 -371.440125
v 352.589020 120.561180 -380.468140
v 377.520752 139.233810 -364.589691
v 345.849365 120.333199 -384.002075
v 326.687775 112.490761 -395.181519
v 326.031921 119.662842 -394.393402
v 346.722168 119.894890 -383.618042
v 349.579987 120.459396 -382.045929
v 313.272888 162.084045 -394.340698
v 322.781128 155.211411 -390.487061
v 342.598572 155.881775 -380.095734
v 343.386078 156.376251 -379.609192
v 346.329193 156.007965 -378.139587
v 366.184052 153.523468 -368.225281
v 321.827606 68.535172 -404.620514
v 330.679993 68.834618 -399.978760
v 424.326904 64.356323 -352.077972
v 415.274292 163.349838 -341.199829
v 468.388519 165.146530 -313.349304
v 466.618805 87.395782 -326.501984
v 459.536133 164.847076 -317.991058
v 477.441132 66.153015 -324.227417
v 468.473938 67.109177 -328.731201
v 424.762177 162.725250 -336.373627
v 426.096619 142.107071 -338.925293
v 424.241486 162.393677 -336.696045
v 467.953247 66.777603 -329.053650
v 433.179260 64.655777 -347.436218
v 520.265015 122.216469 -293.178986
v 487.088623 111.164246 -312.137573
v 486.183350 121.063591 -311.049744
v 521.170288 112.317116 -294.266815
v 476.365662 160.451385 -309.947723
v 483.467590 150.761658 -307.786316
v 529.037231 162.233109 -282.329285
v 529.942505 152.333755 -283.417114
v 484.513000 71.357224 -319.738037
v 489.804413 81.466187 -315.401001
v 537.184570 73.138947 -292.119598
v 536.279358 83.038292 -291.031799
v 554.441406 156.042389 -270.117920
v 571.003662 159.766418 -260.935669
v 548.109924 143.018326 -275.453491
v 556.776978 130.501617 -272.924530
v 585.325012 151.386139 -254.821106
v 564.714966 129.304840 -268.992828
v 586.222046 141.576797 -255.899017
v 598.185608 141.981491 -249.625900
v 572.987549 170.482635 -258.219727
v 545.383789 164.275909 -273.523529
v 534.831360 142.569153 -282.416138
v 549.276489 121.707977 -278.201202
v 596.856506 156.515518 -248.028793
v 563.575439 119.552170 -271.118835
v 565.635193 119.241623 -270.098633
v 577.841675 117.401283 -264.052704
v 577.962708 132.283600 -261.648132
v 580.177795 119.110283 -262.571289
v 595.073853 110.393684 -256.211334
v 606.605408 115.523064 -249.419022
v 596.802124 91.494949 -258.288055
v 549.148987 93.900101 -282.642944
v 549.509399 73.754013 -285.625916
v 535.870422 93.450928 -289.605591
v 557.009888 82.547653 -280.349243
v 583.787598 68.585983 -268.647705
v 579.862061 79.102295 -269.030457
v 609.197754 87.174957 -252.534119
v 613.760254 88.558121 -261.324493
v 629.686523 158.587692 -230.663025
v 646.248779 162.311722 -221.480743
v 623.355042 145.563629 -235.998581
v 632.022095 133.046936 -233.469635
v 660.570190 153.931458 -215.366196
v 639.960083 131.850143 -229.537918
v 661.467163 144.122101 -216.444122
v 673.430786 144.526794 -210.170990
v 648.232727 173.027939 -218.764816
v 620.628906 166.821228 -234.068619
v 610.076477 145.114471 -242.961212
v 624.521606 124.253288 -238.746292
v 672.101685 159.060837 -208.573883
v 638.820557 122.097473 -231.663940
v 640.880371 121.786934 -230.643723
v 653.086853 119.946594 -224.597778
v 653.207825 134.828903 -222.193237
v 655.422913 121.655594 -223.116379
v 670.319092 112.938995 -216.756409
v 681.850586 118.068375 -209.964111
v 672.047241 94.040260 -218.833145
v 624.394104 96.445412 -243.188049
v 624.754517 76.299324 -246.170990
v 611.115601 95.996246 -250.150681
v 632.255005 85.092964 -240.894333
v 659.032715 71.131287 -229.192795
v 655.107178 81.647614 -229.575531
v 684.442932 89.720261 -213.079208
v 402.195984 63.607704 -363.682343
v 393.143372 162.601227 -352.804230
v 401.995758 162.900665 -348.162476
v 411.048370 63.907154 -359.040588
vn -0.4562 -0.1383 0.8790
vn -0.4563 -0.1383 0.8790
vn -0.0905 0.9899 0.1088
vn -0.4561 -0.1382 0.8791
vn -0.4562 -0.1384 0.8791
vn -0.4562 -0.1383 0.8791
usemtl Green1
s off
f 169//95 171//95 170//95
f 170//96 172//96 169//96
f 173//95 169//95 172//95
f 172//95 174//95 173//95
f 170//95 176//95 175//95
f 175//95 172//95 170//95
f 176//95 177//95 168//95
f 168//95 167//95 176//95
f 175//95 176//95 167//95
f 167//95 178//95 175//95
f 180//97 171//97 169//97
f 169//97 179//97 180//97
f 181//95 182//95 185//95
f 184//95 181//95 185//95
f 185//96 186//96 184//96
f 187//96 183//96 184//96
f 187//95 188//95 183//95
f 184//95 189//95 187//95
f 184//96 186//96 190//96
f 191//95 192//95 187//95
f 189//95 191//95 187//95
f 184//95 190//95 189//95
f 189//95 190//95 193//95
f 189//95 193//95 194//95
f 195//95 189//95 194//95
f 194//95 196//95 195//95
f 193//95 186//95 185//95
f 185//95 194//95 193//95
f 203//95 201//95 202//95
f 202//95 201//95 200//95
f 204//95 202//95 200//95
f 200//95 199//95 204//95
f 205//95 207//95 206//95
f 201//96 208//96 205//96
f 201//95 209//95 208//95
f 201//96 203//96 209//96
f 205//95 206//95 201//95
f 207//95 211//95 210//95
f 198//95 210//95 211//95
f 211//95 212//95 198//95
f 212//98 213//98 198//98
f 213//96 214//96 198//96
f 198//95 214//95 215//95
f 216//95 198//95 215//95
f 197//95 198//95 216//95
f 197//95 216//95 204//95
f 204//96 199//96 197//96
f 210//95 217//95 207//95
f 206//95 207//95 217//95
f 217//96 218//96 206//96
f 237//95 220//95 236//95
f 225//95 223//95 224//95
f 224//95 223//95 222//95
f 226//95 224//95 222//95
f 222//95 221//95 226//95
f 227//95 229//95 228//95
f 223//95 230//95 227//95
f 223//95 231//95 230//95
f 223//96 225//96 231//96
f 227//95 228//95 223//95
f 229//95 233//95 232//95
f 220//95 232//95 233//95
f 233//95 234//95 220//95
f 234//99 235//99 220//99
f 235//95 236//95 220//95
f 219//95 220//95 237//95
f 219//95 237//95 226//95
f 226//95 221//95 219//95
f 232//95 238//95 229//95
f 228//95 229//95 238//95
f 238//95 239//95 228//95
f 242//95 244//95 243//95
f 245//95 242//95 243//95
f 243//95 246//95 245//95
f 247//100 249//100 248//100
f 243//95 247//95 248//95
f 248//95 250//95 243//95
f 250//96 246//96 243//96
f 248//95 249//95 241//95
f 241//95 240//95 248//95
f 240//96 251//96 248//96
f 252//95 254//95 253//95
f 253//95 255//95 252//95
f 254//95 257//95 256//95
f 258//95 256//95 257//95
f 257//95 259//95 258//95
f 256//96 260//96 254//96
f 253//95 254//95 260//95
f 261//95 253//95 260//95
f 262//95 263//95 261//95
f 261//95 260//95 262//95
f 266//95 273//95 274//95
f 274//95 275//95 266//95
f 273//95 266//95 264//95
f 272//95 273//95 264//95
f 264//95 265//95 272//95
f 272//95 265//95 268//95
f 276//95 272//95 268//95
f 271//95 276//95 268//95
f 268//95 270//95 271//95
f 267//95 266//95 275//95
f 267//95 275//95 277//95
f 269//95 267//95 277//95
f 278//96 269//96 277//96
f 269//95 278//95 279//95
f 280//95 269//95 279//95
f 280//95 279//95 281//95
f 280//95 281//95 282//95
f 282//95 284//95 283//95
f 283//95 280//95 282//95
f 285//95 287//95 286//95
f 288//95 285//95 286//95
f 289//95 290//95 288//95
f 288//95 286//95 289//95
f 284//95 290//95 289//95
f 284//95 289//95 291//95
f 291//95 283//95 284//95
f 295//95 302//95 303//95
f 303//96 304//96 295//96
f 302//95 295//95 293//95
f 301//95 302//95 293//95
f 293//95 294//95 301//95
f 301//95 294//95 297//95
f 305//95 301//95 297//95
f 300//95 305//95 297//95
f 297//95 299//95 300//95
f 296//95 295//95 304//95
f 296//95 304//95 306//95
f 298//95 296//95 306//95
f 307//95 298//95 306//95
f 298//95 307//95 308//95
f 309//95 298//95 308//95
f 309//95 308//95 310//95
f 309//95 310//95 311//95
f 311//95 313//95 312//95
f 312//95 309//95 311//95
f 314//95 316//95 315//95
f 317//95 314//95 315//95
f 318//95 319//95 317//95
f 317//95 315//95 318//95
f 313//95 319//95 318//95
f 313//95 318//95 320//95
f 320//95 312//95 313//95
f 323//95 322//95 321//95
f 321//95 324//95 323//95
