# Blender v3.0.1 OBJ File: 'scene.blend'
# www.blender.org
mtllib tree.mtl
o scene
v 140.000000 -0.000004 100.000000
v 140.000000 16.786795 40.000000
v 140.000000 16.786793 100.000000
v 140.000000 -0.000002 40.000000
v 116.000000 -0.000002 38.000000
v 124.000000 -0.000002 40.000000
v 116.000000 -0.000002 40.000000
v 124.000000 -0.000002 38.000000
v 116.000000 -0.000004 100.000000
v 100.000000 -0.000004 100.000000
v 124.000000 -0.000004 100.000000
v 100.000000 -0.000002 40.000000
v 124.000000 -0.000004 102.000000
v 116.000000 -0.000004 102.000000
v 100.000000 16.786793 100.000000
v 100.000000 16.786795 40.000000
v 116.000000 13.999998 40.000000
v 100.807602 15.979182 40.000000
v 139.192383 15.979182 40.000000
v 124.000000 13.999998 40.000000
v 120.000000 35.171570 40.000000
v 120.000000 35.171566 100.000000
v 124.000000 13.999995 100.000000
v 139.192383 15.979179 100.000000
v 116.000000 13.999995 100.000000
v 100.807602 15.979179 100.000000
v 97.979187 18.807610 35.000000
v 120.000000 35.171570 35.000000
v 100.807602 15.979182 35.000000
v 118.000000 38.828426 35.000000
v 142.020813 18.807610 35.000000
v 139.192383 15.979182 35.000000
v 122.000000 38.828426 35.000000
v 122.000000 41.000000 35.000000
v 118.000000 41.000000 35.000000
v 142.020813 18.807608 105.000000
v 122.000000 38.828423 105.000000
v 139.192383 15.979179 105.000000
v 120.000000 35.171566 105.000000
v 118.000000 38.828423 105.000000
v 122.000000 40.999996 105.000000
v 118.000000 40.999996 105.000000
v 97.979187 18.807608 105.000000
v 100.807602 15.979179 105.000000
v 124.000000 13.999998 38.000000
v 116.000000 13.999998 38.000000
v 124.000000 13.999995 102.000000
v 116.000000 13.999995 102.000000
v -842.917969 -2.099953 -1071.267822
v -880.000000 2.099997 70.000000
v -760.000000 -2.100003 70.000000
v -977.082031 -2.100034 775.342224
v -842.917969 -2.100053 1211.267822
v -977.082031 -2.099972 -635.342285
vn 0.0000 -1.0000 -0.0000
vn 0.0000 0.0000 -1.0000
vn -0.0000 0.0000 1.0000
vn 0.7071 -0.7071 -0.0000
vn -0.7071 -0.7071 0.0000
vn 1.0000 0.0000 0.0000
vn 0.0000 1.0000 0.0000
vn -1.0000 0.0000 0.0000
vn 0.7071 0.7071 0.0000
vn -0.7071 0.7071 0.0000
vn 0.0350 0.9994 -0.0025
vn -0.0134 0.9999 0.0041
vn 0.0350 0.9994 0.0025
vn -0.0432 0.9991 0.0000
vn -0.0134 0.9999 -0.0041
usemtl Red1
s off
f 5//1 6//1 7//1
f 6//1 5//1 8//1
f 7//1 9//1 10//1
f 9//1 7//1 11//1
f 7//1 10//1 12//1
f 6//1 11//1 7//1
f 11//1 6//1 1//1
f 1//1 6//1 4//1
f 9//1 13//1 14//1
f 13//1 9//1 11//1
f 4//2 19//2 2//2
f 10//3 26//3 15//3
f 27//2 28//2 29//2
f 28//2 27//2 30//2
f 28//2 31//2 32//2
f 31//2 28//2 33//2
f 30//2 33//2 28//2
f 33//2 30//2 34//2
f 34//2 30//2 35//2
f 36//4 3//4 31//4
f 38//4 3//4 36//4
f 3//4 38//4 24//4
f 2//4 31//4 3//4
f 32//4 2//4 19//4
f 2//4 32//4 31//4
f 19//5 28//5 32//5
f 22//5 38//5 39//5
f 38//5 22//5 24//5
f 40//3 37//3 41//3
f 40//3 41//3 42//3
f 37//3 40//3 39//3
f 43//3 39//3 40//3
f 39//3 43//3 44//3
f 39//3 36//3 37//3
f 36//3 39//3 38//3
f 37//6 34//6 41//6
f 34//6 37//6 33//6
f 34//7 42//7 41//7
f 42//7 34//7 35//7
f 30//8 42//8 35//8
f 42//8 30//8 40//8
f 27//5 16//5 43//5
f 29//5 16//5 27//5
f 16//5 29//5 18//5
f 15//5 43//5 16//5
f 44//5 15//5 26//5
f 15//5 44//5 43//5
f 29//4 21//4 18//4
f 21//4 29//4 28//4
f 26//4 39//4 44//4
f 39//4 26//4 22//4
f 6//6 45//6 20//6
f 45//6 6//6 8//6
f 45//7 17//7 20//7
f 17//7 45//7 46//7
f 5//8 17//8 46//8
f 17//8 5//8 7//8
f 5//2 45//2 8//2
f 45//2 5//2 46//2
f 13//6 23//6 47//6
f 23//6 13//6 11//6
f 23//7 48//7 47//7
f 48//7 23//7 25//7
f 9//8 48//8 25//8
f 48//8 9//8 14//8
f 48//3 13//3 47//3
f 13//3 48//3 14//3
f 52//1 51//1 53//1
f 54//1 51//1 52//1
f 51//1 54//1 49//1
usemtl DarkRed
f 36//9 33//9 37//9
f 33//9 36//9 31//9
f 27//10 40//10 30//10
f 40//10 27//10 43//10
usemtl Yellow1
f 12//2 17//2 7//2
f 17//2 12//2 18//2
f 18//2 12//2 16//2
f 20//2 4//2 6//2
f 4//2 20//2 19//2
f 20//2 21//2 19//2
f 17//2 21//2 20//2
f 21//2 17//2 18//2
f 22//3 23//3 24//3
f 22//3 25//3 23//3
f 26//3 25//3 22//3
f 10//3 25//3 26//3
f 25//3 10//3 9//3
f 24//3 1//3 3//3
f 23//3 1//3 24//3
f 1//3 23//3 11//3
f 28//5 19//5 21//5
f 49//11 50//11 51//11
f 50//12 52//12 53//12
f 51//13 50//13 53//13
f 54//14 52//14 50//14
f 49//15 54//15 50//15
usemtl DarkYellow
f 1//6 2//6 3//6
f 2//6 1//6 4//6
f 12//8 15//8 16//8
f 15//8 12//8 10//8
o tree.006
v 0.000000 51.000000 -1.119998
v 1.820000 49.669998 0.000002
v 7.500000 51.000000 0.000002
v 1.820000 52.320000 0.000002
v 0.000000 51.000000 1.120002
v 2.310000 58.129997 0.000003
v -0.690000 53.129997 0.000002
v -6.060000 55.399998 0.000002
v -2.240000 51.000000 0.000002
v -6.060000 46.590000 0.000002
v -0.690000 48.860001 0.000002
v 2.310000 43.860001 0.000002
vn 0.1249 -0.5335 -0.8365
vn -0.1247 -0.5364 -0.8347
vn 0.5476 -0.0462 -0.8355
vn 0.4742 -0.2845 -0.8332
vn 0.2148 0.5081 -0.8341
vn -0.4169 -0.3619 0.8338
vn -0.4170 0.3612 -0.8340
vn -0.4170 0.3612 0.8340
vn -0.4732 -0.2839 -0.8340
vn -0.4732 -0.2839 0.8340
vn 0.1247 0.5364 -0.8347
vn -0.1249 0.5335 -0.8365
vn -0.4742 0.2845 -0.8332
vn -0.5476 0.0462 -0.8355
vn -0.4169 -0.3619 -0.8338
vn -0.2148 -0.5081 -0.8341
vn 0.2140 -0.5062 -0.8354
vn 0.2140 -0.5062 0.8354
vn 0.5478 0.0462 -0.8353
vn -0.5478 -0.0462 -0.8353
usemtl Yellow1.001
s off
f 55//16 57//16 56//16
f 59//17 58//17 57//17
f 55//18 60//18 58//18
f 59//19 61//19 60//19
f 55//20 62//20 61//20
f 59//21 62//21 63//21
f 55//22 64//22 63//22
f 59//23 63//23 64//23
f 55//24 66//24 65//24
f 59//25 65//25 66//25
usemtl Orange
f 55//26 58//26 57//26
f 59//27 57//27 56//27
f 55//28 61//28 60//28
f 59//29 60//29 58//29
f 55//30 63//30 62//30
f 59//31 62//31 61//31
f 55//32 65//32 64//32
f 59//33 64//33 65//33
f 55//34 56//34 66//34
f 59//35 56//35 66//35
o tree.002
v 5.500000 0.000000 0.000000
v 2.750000 -0.000000 4.760000
v -2.740000 -0.000000 4.760000
v -5.490000 0.000000 0.000000
v -2.750000 0.000000 -4.760000
v 2.740000 0.000000 -4.760000
v 17.820000 10.050000 -0.870000
v 19.340000 6.899999 8.170000
v 11.790000 10.049999 13.389999
v 5.660000 6.899999 20.219999
v -3.110000 10.049999 17.570000
v -12.270000 6.899999 17.029999
v -15.679999 10.050000 8.520000
v -20.969999 6.900000 1.020000
v -16.440001 10.050000 -6.949999
v -13.870000 6.900000 -15.759999
v -4.810000 10.050001 -17.180000
v 3.660000 6.900001 -20.670000
v 10.429999 10.050001 -14.480000
v 18.449999 6.900000 -10.020000
v 9.050000 27.599998 -4.689999
v 11.860000 25.799999 1.790001
v 7.260000 27.599998 7.160001
v 1.960000 25.799999 11.830001
v -4.560000 27.599998 9.120001
v -10.650000 25.799999 5.520001
v -10.080000 27.599998 -1.519999
v -8.540000 25.799999 -8.419999
v -1.660000 27.599998 -10.059999
v 5.370000 25.799999 -10.729999
v 0.000000 45.000000 0.000002
v 3.360000 37.399998 5.900002
v -4.030000 36.200001 6.900001
v -6.790000 37.399998 -0.029998
v -3.960000 36.200001 -6.949998
v 3.430000 37.399998 -5.859998
v 7.990000 36.200001 0.040002
v -0.640000 37.399998 1.280002
v 0.237576 37.399998 1.433941
v 1.018947 37.399998 1.004914
v -1.290909 37.399998 0.669092
v 1.437576 37.399998 0.216971
v -1.414737 37.399998 -0.213332
v 1.270175 37.399998 -0.658244
v 0.650909 37.399998 -1.300604
v -0.232982 37.399998 -1.411928
v -1.035151 37.399998 -1.020604
v 1.418346 27.599998 1.610828
v 0.588052 27.599998 2.100780
v -0.374135 27.599998 2.113686
v -1.274805 27.599998 1.769352
v 2.009350 27.599998 0.848832
v -1.886316 27.599998 1.024964
v 2.143759 27.599998 -0.104660
v 1.916883 27.599998 -1.041038
v -1.977745 27.599998 -0.836089
v -2.178701 27.599998 0.105975
v -1.441039 27.599998 -1.637401
v 1.254737 27.599998 -1.741954
v 0.380260 27.599998 -2.147531
v -0.578647 27.599998 -2.066766
v -2.114159 10.049998 3.672773
v 2.121875 10.049998 3.672773
v 4.243750 10.049998 0.000000
v -4.236034 10.050000 0.000000
v -3.990414 10.050000 -0.426699
v -2.121875 10.049998 -3.672772
v 2.114159 10.049998 -3.672772
v -3.944886 10.050000 0.503952
vn 0.0000 -1.0000 -0.0000
vn -0.0941 -0.8419 0.5314
vn 0.3562 -0.8421 0.4050
vn 0.5389 -0.8420 -0.0265
vn -0.4966 -0.8422 -0.2100
vn 0.3153 -0.8419 -0.4380
vn -0.1456 -0.8422 -0.5191
vn -0.4739 -0.8422 0.2573
vn -0.1940 -0.9015 0.3868
vn 0.3083 -0.9014 0.3040
vn 0.3843 -0.9014 -0.1994
vn -0.4282 -0.9014 -0.0647
vn -0.0709 -0.9011 -0.4278
vn 0.1249 -0.9677 0.2189
vn 0.1276 -0.9675 -0.2183
vn -0.2527 -0.9676 -0.0015
vn -0.6901 0.6151 0.3814
vn 0.0164 0.6152 -0.7882
vn 0.6752 0.6149 0.4075
vn -0.6872 0.6507 -0.3231
vn -0.3654 -0.6507 -0.6656
vn 0.0949 0.6509 -0.7532
vn 0.7458 0.6507 -0.1426
vn -0.5196 0.6508 0.5536
vn -0.7159 0.6600 0.2278
vn -0.3818 -0.6599 -0.6471
vn -0.6242 0.6600 -0.4181
vn -0.0631 0.6599 -0.7487
vn 0.7440 0.6600 0.1049
vn 0.5461 0.6600 -0.5159
vn -0.2683 0.6599 0.7018
vn -0.8609 0.1074 0.4974
vn 0.0000 0.1076 0.9942
vn 0.8609 0.1076 0.4973
vn 0.0000 0.1076 -0.9942
vn 0.8601 0.1075 -0.4987
vn -0.8616 0.1075 -0.4960
vn 0.0068 0.6151 0.7884
vn -0.6867 0.6150 -0.3875
vn 0.6794 0.6151 -0.4000
vn -0.3329 0.6507 -0.6825
vn -0.6705 -0.6508 -0.3562
vn 0.5466 0.6508 -0.5270
vn -0.7519 0.6508 0.1055
vn -0.1312 0.6508 0.7479
vn -0.5805 0.6600 0.4769
vn -0.7347 0.6600 -0.1567
vn 0.0101 0.6600 0.7512
vn -0.3349 0.6599 -0.6726
vn 0.3161 0.6600 -0.6816
vn 0.7302 0.6599 -0.1769
vn -0.5937 -0.6599 -0.4605
usemtl Yellow1.001
s off
f 70//36 71//36 72//36
f 70//36 72//36 69//36
f 72//36 68//36 69//36
f 67//36 68//36 72//36
f 83//37 84//37 85//37
f 82//38 83//38 81//38
f 75//36 77//36 135//36 128//36 129//36 130//36 134//36 133//36 132//36 83//36
f 85//36 73//36 83//36
f 83//36 79//36 81//36
f 80//39 81//39 79//39
f 73//36 75//36 83//36
f 83//36 132//36 131//36 135//36 77//36 79//36
f 74//40 75//40 73//40
f 78//41 79//41 77//41
f 77//42 75//42 76//42
f 73//43 85//43 86//43
f 87//44 95//44 96//44
f 94//45 95//45 93//45
f 93//46 91//46 92//46
f 93//36 123//36 119//36 117//36 116//36 115//36 114//36 118//36 120//36 87//36 91//36
f 91//36 87//36 89//36
f 89//47 87//47 88//47
f 90//48 91//48 89//48
f 93//36 95//36 87//36
f 100//49 101//49 102//49
f 100//36 109//36 107//36 104//36 105//36 106//36 108//36 98//36
f 99//50 100//50 98//50
f 98//51 102//51 103//51
f 98//36 108//36 110//36 111//36 112//36 113//36 109//36 100//36 102//36
f 87//36 120//36 121//36 125//36 126//36 127//36 124//36 122//36 123//36 93//36
usemtl Green1
f 97//52 100//52 99//52
f 97//53 102//53 101//53
f 97//54 98//54 103//54
f 109//55 113//55 94//55 93//55
f 105//56 106//56 89//56 90//56
f 112//57 111//57 96//57 95//57
f 110//58 108//58 88//58 87//58
f 104//59 107//59 92//59 91//59
f 119//60 123//60 80//60 79//60
f 115//61 114//61 75//61 76//61
f 122//62 124//62 82//62 81//62
f 127//63 126//63 84//63 83//63
f 120//64 118//64 74//64 73//64
f 125//65 121//65 86//65 85//65
f 116//66 117//66 78//66 77//66
usemtl Red1.001
f 128//67 135//67 131//67 70//67 69//67
f 129//68 128//68 69//68 68//68
f 130//69 129//69 68//69 67//69
f 133//70 134//70 72//70 71//70
f 134//71 130//71 67//71 72//71
f 131//72 132//72 133//72 71//72 70//72
usemtl DarkGreen
f 97//73 99//73 98//73
f 97//74 101//74 100//74
f 97//75 103//75 102//75
f 113//76 112//76 95//76 94//76
f 106//77 108//77 88//77 89//77
f 111//78 110//78 87//78 96//78
f 107//79 109//79 93//79 92//79
f 105//80 104//80 91//80 90//80
f 117//81 119//81 79//81 78//81
f 123//82 122//82 81//82 80//82
f 115//83 116//83 77//83 76//83
f 124//84 127//84 83//84 82//84
f 126//85 125//85 85//85 84//85
f 121//86 120//86 73//86 86//86
f 114//87 118//87 74//87 75//87
o tree.003
v 0.000000 39.000000 0.000002
v 9.050000 27.599998 -4.689999
v 11.860000 25.799999 1.790001
v 7.260000 27.599998 7.160001
v 1.960000 25.799999 11.830001
v -4.560000 27.599998 9.120001
v -10.650000 25.799999 5.520001
v -10.080000 27.599998 -1.519999
v -8.540000 25.799999 -8.419999
v -1.660000 27.599998 -10.059999
v 5.370000 25.799999 -10.729999
vn -0.1940 -0.9015 0.3868
vn 0.3083 -0.9014 0.3040
vn 0.3843 -0.9014 -0.1994
vn 0.0000 -1.0000 0.0000
vn -0.4282 -0.9014 -0.0647
vn -0.0709 -0.9011 -0.4278
vn 0.7458 0.6507 -0.1426
vn -0.3654 -0.6507 -0.6656
vn -0.5196 0.6508 0.5536
vn -0.6872 0.6507 -0.3231
vn 0.0949 0.6509 -0.7532
vn -0.6705 -0.6508 -0.3562
vn -0.1312 0.6508 0.7479
vn -0.7519 0.6508 0.1055
vn -0.3329 0.6507 -0.6825
vn 0.5466 0.6508 -0.5270
usemtl Yellow1.001
s off
f 137//88 145//88 146//88
f 144//89 145//89 143//89
f 143//90 141//90 142//90
f 143//91 137//91 141//91
f 141//91 137//91 139//91
f 139//92 137//92 138//92
f 140//93 141//93 139//93
f 143//91 145//91 137//91
usemtl Green1
f 136//94 138//94 137//94
f 136//95 139//95 140//95
f 136//96 142//96 141//96
f 136//97 144//97 143//97
f 136//98 146//98 145//98
usemtl DarkGreen
f 136//99 138//99 139//99
f 136//100 141//100 140//100
f 136//101 143//101 142//101
f 136//102 145//102 144//102
f 136//103 137//103 146//103
o tree.004
v 0.000000 30.000000 0.000001
v 17.820000 10.050000 -0.870000
v 19.340000 6.899999 8.170000
v 11.790000 10.049999 13.389999
v 5.660000 6.899999 20.219999
v -3.110000 10.049999 17.570000
v -12.270000 6.899999 17.029999
v -15.679999 10.050000 8.520000
v -20.969999 6.900000 1.020000
v -16.440001 10.050000 -6.949999
v -13.870000 6.900000 -15.759999
v -4.810000 10.050001 -17.180000
v 3.660000 6.900001 -20.670000
v 10.429999 10.050001 -14.480000
v 18.449999 6.900000 -10.020000
vn -0.0941 -0.8419 0.5314
vn 0.3562 -0.8421 0.4050
vn -0.0000 -1.0000 -0.0000
vn 0.5389 -0.8420 -0.0265
vn -0.4966 -0.8422 -0.2100
vn 0.3153 -0.8419 -0.4380
vn -0.1456 -0.8422 -0.5191
vn -0.4739 -0.8422 0.2573
vn 0.7440 0.6600 0.1049
vn -0.3818 -0.6599 -0.6471
vn -0.2683 0.6599 0.7018
vn -0.7159 0.6600 0.2278
vn -0.6242 0.6600 -0.4181
vn -0.0631 0.6599 -0.7487
vn 0.5461 0.6600 -0.5159
vn -0.5937 -0.6599 -0.4605
vn 0.0101 0.6600 0.7512
vn -0.5805 0.6600 0.4769
vn -0.7347 0.6600 -0.1567
vn -0.3349 0.6599 -0.6726
vn 0.3161 0.6600 -0.6816
vn 0.7302 0.6599 -0.1769
usemtl Yellow1.001
s off
f 158//104 159//104 160//104
f 157//105 158//105 156//105
f 150//106 152//106 158//106
f 160//106 148//106 158//106
f 158//106 154//106 156//106
f 155//107 156//107 154//107
f 148//106 150//106 158//106
f 158//106 152//106 154//106
f 149//108 150//108 148//108
f 153//109 154//109 152//109
f 152//110 150//110 151//110
f 148//111 160//111 161//111
usemtl Green1
f 147//112 149//112 148//112
f 147//113 150//113 151//113
f 147//114 153//114 152//114
f 147//115 155//115 154//115
f 147//116 157//116 156//116
f 147//117 159//117 158//117
f 147//118 161//118 160//118
usemtl DarkGreen
f 147//119 149//119 150//119
f 147//120 152//120 151//120
f 147//121 154//121 153//121
f 147//122 156//122 155//122
f 147//123 158//123 157//123
f 147//124 160//124 159//124
f 147//125 148//125 161//125
o tree.005
v 0.000000 44.000000 0.000002
v 5.500000 0.000000 0.000000
v 2.750000 -0.000000 4.760000
v -2.740000 -0.000000 4.760000
v -5.490000 0.000000 0.000000
v -2.750000 0.000000 -4.760000
v 2.740000 0.000000 -4.760000
vn 0.0000 -1.0000 -0.0000
vn 0.8609 0.1076 0.4973
vn 0.0000 0.1076 0.9942
vn -0.8609 0.1074 0.4974
vn -0.8616 0.1075 -0.4960
vn 0.0000 0.1076 -0.9942
vn 0.8601 0.1075 -0.4987
usemtl Yellow1.001
s off
f 166//126 167//126 168//126
f 166//126 168//126 165//126
f 168//126 164//126 165//126
f 163//126 164//126 168//126
usemtl Red1.001
f 162//127 164//127 163//127
f 162//128 165//128 164//128
f 162//129 166//129 165//129
f 162//130 167//130 166//130
f 162//131 168//131 167//131
f 162//132 163//132 168//132
